<?xml version="1.0" encoding="iso-8859-1"?>
<!-- Generator: Adobe Illustrator 17.1.0, SVG Export Plug-In . SVG Version: 6.00 Build 0)  -->
<!DOCTYPE svg PUBLIC "-//W3C//DTD SVG 1.1//EN" "http://www.w3.org/Graphics/SVG/1.1/DTD/svg11.dtd">
<svg version="1.1" id="Capa_1" xmlns="http://www.w3.org/2000/svg" xmlns:xlink="http://www.w3.org/1999/xlink" x="0px"
     y="0px"
     viewBox="0 0 450.916 450.916" style="enable-background:new 0 0 450.916 450.916;" xml:space="preserve">
<g>
	<path style="fill:none;" d="M223.469,195.36c-8.976,24.73-11.46,54.086-6.745,80.749l35.254-35.254
		c-5.388-7.077-10.439-14.904-15.279-22.911C231.975,210.128,227.434,202.612,223.469,195.36z"/>
    <path style="fill:#FFAC52;" d="M275.672,118.704c-6.454,0-14.441,2.932-24.418,8.962c-30.622,18.509-27.137,30.797,2.561,79.933
		c4.417,7.308,8.554,13.593,12.48,18.939l1.611-1.611c3.905-3.905,10.237-3.905,14.143,0c0.948,0.948,1.66,2.04,2.148,3.204
		c0.673-1.053,1.322-2.128,1.916-3.25c10.744-20.297,6.991-48.645-10.296-77.776c-2.819-4.749-1.253-10.885,3.496-13.703
		c4.75-2.818,10.885-1.254,13.703,3.496c20.926,35.262,24.853,70.741,10.774,97.34c-3.076,5.811-6.89,10.989-11.323,15.462
		c0.8,0.253,1.596,0.457,2.391,0.617c1.73-0.656,3.66-0.848,5.605-0.436c0.677,0.144,1.324,0.353,1.934,0.619
		c5.397-0.739,11.514-3.2,18.584-7.473c9.09-5.494,14.023-10.551,16.671-15.17c0.107-2.11,0.887-4.194,2.344-5.922
		c0.418-1.804,0.574-3.529,0.608-5.173c0.23-11.199-6.051-26.983-19.766-49.674C300.96,134.198,290.024,118.704,275.672,118.704z"/>
    <path style="fill:#FFEBD4;" d="M176.604,77.752c6.965,11.523,19.154,18.403,32.604,18.403c6.905,0,13.706-1.905,19.669-5.509
		c8.717-5.269,14.857-13.602,17.288-23.464c2.432-9.863,0.869-20.097-4.402-28.816C234.813,26.866,222.612,20,209.128,20
		c-6.901,0-13.69,1.898-19.633,5.491C171.532,36.349,165.749,59.792,176.604,77.752z"/>
    <path style="fill:#FFEBD4;" d="M190.197,408.916c-6.066,0-11.001,4.935-11.001,11.001c0,6.065,4.935,10.999,11.001,10.999
		c6.064,0,10.999-4.934,10.999-10.999C201.195,413.851,196.261,408.916,190.197,408.916z"/>
    <path d="M410.96,340.74l-19.829-14.566c8.852-11.416,13.128-23.258,12.732-35.319c-0.893-27.212-25.438-48.739-43.36-64.458
		c-0.289-0.253-0.565-0.497-0.851-0.748c0.57-2.726,0.889-5.547,0.949-8.477c0.32-15.568-6.453-33.641-22.646-60.431
		c-18.823-31.142-35.08-58.037-62.283-58.037c-10.347,0-21.393,3.764-34.764,11.846c-30.515,18.444-35.189,38.085-28.413,60.172
		c-18.516,35.2-23.289,81.985-12.534,122.149L64.26,428.573c-1.511,1.511-3.519,2.343-5.656,2.343c-2.137,0-4.146-0.832-5.657-2.343
		c-3.905-3.905-10.236-3.905-14.142-0.001c-3.905,3.905-3.906,10.237,0,14.142c5.289,5.289,12.32,8.202,19.799,8.202
		c7.479,0,14.51-2.913,19.799-8.201l139.951-139.95c0.003-0.003,0.007-0.007,0.01-0.01l34.179-34.179
		c7.641-0.867,14.832-2.869,21.397-5.908c4.197,2.8,8.608,4.968,13.268,6.35c-0.645,9.48-0.564,24.15,3.252,41.395
		c5.792,26.176,21.602,63.449,63.764,95.064l-6.81,30.911c-1.189,5.393,2.221,10.729,7.614,11.917
		c0.725,0.16,1.448,0.236,2.161,0.236c4.591,0,8.728-3.182,9.756-7.85l8.22-37.311c0.869-3.944-0.72-8.023-4.027-10.341
		c-32.613-22.853-53.12-51.805-60.949-86.051c-3.583-15.671-3.561-28.962-2.988-37.015c7.544-1.375,15.507-4.621,24.126-9.831
		c8.158-4.931,14.526-10.175,19.215-15.873c15.345,13.533,32.763,29.922,33.331,47.242c0.313,9.521-4.448,19.064-14.554,29.175
		c-2.061,2.062-3.12,4.921-2.898,7.829c0.222,2.907,1.701,5.573,4.051,7.299l28.648,21.044c1.784,1.31,3.857,1.941,5.913,1.941
		c3.074,0,6.107-1.413,8.067-4.08C416.369,350.268,415.411,344.009,410.96,340.74z M339.997,221.934
		c-1.457,1.728-2.237,3.812-2.344,5.922c-2.648,4.618-7.581,9.676-16.671,15.17c-7.069,4.273-13.186,6.734-18.584,7.473
		c-0.611-0.266-1.257-0.476-1.934-0.619c-1.945-0.412-3.875-0.22-5.605,0.436c-0.795-0.16-1.591-0.363-2.391-0.617
		c4.433-4.473,8.247-9.651,11.323-15.462c14.079-26.599,10.152-62.078-10.774-97.34c-2.818-4.75-8.953-6.314-13.703-3.496
		c-4.749,2.818-6.315,8.954-3.496,13.703c17.287,29.131,21.04,57.48,10.296,77.776c-0.594,1.122-1.242,2.197-1.916,3.25
		c-0.488-1.164-1.201-2.256-2.148-3.204c-3.905-3.905-10.237-3.905-14.143,0l-1.611,1.611c-3.927-5.345-8.064-11.631-12.48-18.939
		c-29.699-49.135-33.184-61.423-2.561-79.933c9.977-6.03,17.964-8.962,24.418-8.962c14.352,0,25.288,15.495,45.167,48.383
		c13.715,22.691,19.996,38.475,19.766,49.674C340.571,218.404,340.415,220.129,339.997,221.934z M216.724,276.109
		c-4.715-26.662-2.231-56.019,6.745-80.749c3.966,7.252,8.506,14.768,13.231,22.584c4.84,8.007,9.891,15.833,15.279,22.911
		L216.724,276.109z"/>
    <path d="M209.209,116.155c10.552,0,20.931-2.902,30.015-8.393c13.289-8.032,22.65-20.744,26.361-35.792
		c3.71-15.05,1.33-30.658-6.704-43.949C248.433,10.737,229.369,0,209.128,0c-10.548,0-20.914,2.896-29.979,8.375
		c-27.401,16.563-36.221,52.326-19.662,79.723C170.108,105.666,188.694,116.155,209.209,116.155z M209.128,20
		c13.484,0,25.685,6.866,32.636,18.366c5.27,8.719,6.833,18.953,4.402,28.816c-2.432,9.862-8.571,18.195-17.288,23.464
		c-5.962,3.604-12.764,5.509-19.669,5.509c-13.45,0-25.639-6.88-32.604-18.403c-10.855-17.959-5.072-41.403,12.891-52.261
		C195.438,21.898,202.227,20,209.128,20z"/>
    <path d="M190.197,388.916c-17.094,0-31.001,13.907-31.001,31.001c0,17.093,13.907,30.999,31.001,30.999
		c17.093,0,30.999-13.906,30.999-30.999C221.195,402.823,207.29,388.916,190.197,388.916z M190.197,430.916
		c-6.066,0-11.001-4.934-11.001-10.999c0-6.066,4.935-11.001,11.001-11.001c6.064,0,10.999,4.935,10.999,11.001
		C201.195,425.982,196.261,430.916,190.197,430.916z"/>
</g>
</svg>
