<svg xmlns="http://www.w3.org/2000/svg" height="512pt" version="1.1" viewBox="0 -39 512.00018 512" width="512pt">
<g id="surface1">
<path d="M 467.617188 224.511719 C 465.109375 230.429688 462.140625 236.316406 458.792969 242 L 454.246094 249.726562 L 507.976562 227.46875 L 468.503906 222.417969 Z M 467.617188 224.511719 " style=" stroke:none;fill-rule:nonzero;fill:rgb(15.686275%,56.078431%,78.823529%);fill-opacity:1;" />
<path d="M 352.628906 184.410156 L 348.476562 182.492188 L 348.539062 182.472656 L 341.484375 179.226562 C 337.164062 177.242188 331.449219 174.691406 325.527344 172.605469 L 320.605469 170.867188 L 321.582031 175.992188 C 322.316406 179.863281 322.769531 183.347656 322.964844 186.636719 L 323.191406 190.484375 L 348.164062 182.589844 L 349.652344 216.03125 L 354.402344 211.609375 C 359.726562 206.65625 365.019531 201.457031 370.136719 196.15625 L 373.371094 192.804688 L 368.984375 191.246094 C 362.953125 189.097656 357.074219 186.464844 352.628906 184.410156 Z M 352.628906 184.410156 " style=" stroke:none;fill-rule:nonzero;fill:rgb(15.686275%,56.078431%,78.823529%);fill-opacity:1;" />
<path d="M 347.152344 184.035156 L 323.125 191.621094 L 322.996094 193.675781 C 322.5 201.589844 320.21875 208.703125 316.398438 214.242188 L 314.386719 217.160156 L 317.597656 218.660156 C 318.671875 219.164062 319.714844 219.703125 320.703125 220.269531 C 324.488281 222.425781 328.085938 225.058594 331.398438 228.105469 L 333.3125 229.859375 L 335.324219 228.21875 C 339.367188 224.925781 343.523438 221.390625 347.675781 217.710938 L 349.160156 216.304688 L 348.503906 214.410156 Z M 347.152344 184.035156 " style=" stroke:none;fill-rule:nonzero;fill:rgb(15.686275%,56.078431%,78.823529%);fill-opacity:1;" />
<path d="M 319.863281 168.167969 L 320.320312 170.019531 L 322.1875 170.394531 C 322.257812 170.410156 322.324219 170.421875 322.410156 170.433594 C 329.535156 172.683594 336.445312 175.730469 342.273438 178.417969 L 346.941406 180.570312 L 332.402344 4.496094 L 283.148438 47.023438 L 293.304688 127.148438 L 294.585938 127.789062 L 296.214844 128.886719 L 297.898438 127.71875 C 300.710938 125.769531 303.707031 123.792969 307.058594 121.679688 C 307.167969 121.613281 307.273438 121.597656 307.34375 121.597656 C 307.414062 121.597656 307.480469 121.613281 307.523438 121.628906 C 307.6875 121.695312 307.8125 121.828125 307.855469 122 L 318.332031 162.132812 C 318.847656 164.132812 319.367188 166.140625 319.863281 168.167969 Z M 319.863281 168.167969 " style=" stroke:none;fill-rule:nonzero;fill:rgb(15.686275%,56.078431%,78.823529%);fill-opacity:1;" />
<path d="M 279.023438 48.804688 L 280.316406 48.511719 L 281.019531 47.453125 L 331.007812 4.285156 L 321.128906 5.546875 C 231.785156 16.972656 143.054688 36.332031 57.398438 63.078125 C 49.867188 65.425781 42.230469 68.265625 38.8125 74.820312 C 36.023438 80.136719 36.789062 86.355469 37.984375 93.355469 L 40.566406 108.339844 L 43.84375 107.304688 C 120.65625 83.058594 199.78125 63.378906 279.023438 48.804688 Z M 279.023438 48.804688 " style=" stroke:none;fill-rule:nonzero;fill:rgb(15.686275%,56.078431%,78.823529%);fill-opacity:1;" />
<path d="M 279.234375 49.832031 C 199.75 64.457031 120.351562 84.234375 43.246094 108.613281 L 40.75 109.402344 L 63.847656 243.816406 L 109.828125 227.257812 L 109.144531 224.609375 C 105.105469 209.011719 99.753906 188.402344 94.199219 167.285156 C 93.261719 163.746094 92.550781 159.351562 95.378906 156.78125 C 97.128906 155.1875 99.578125 154.964844 101.941406 154.871094 C 104.933594 154.746094 107.972656 154.683594 110.976562 154.683594 C 147.089844 154.683594 182.984375 163.445312 214.773438 180.023438 L 223.957031 184.8125 L 218.636719 175.660156 C 218.597656 175.59375 218.558594 175.53125 218.527344 175.472656 C 217.882812 174.171875 217.703125 172.804688 218.023438 171.628906 C 218.023438 171.628906 218.128906 171.308594 218.171875 171.171875 C 218.59375 170.125 219.414062 169.324219 220.144531 168.609375 L 228.128906 160.824219 C 229.09375 159.878906 230.183594 158.804688 231.609375 158.253906 C 232.3125 157.984375 232.976562 157.847656 233.578125 157.847656 C 237.585938 157.847656 240.296875 164.425781 241.757812 167.96875 L 241.839844 168.164062 C 242.308594 169.285156 242.710938 170.253906 243.089844 170.933594 L 257.910156 197.964844 L 258.347656 187.171875 C 258.777344 176.46875 262.390625 165.644531 268.796875 155.867188 C 274.210938 147.617188 281.601562 139.953125 291.394531 132.441406 L 292.761719 131.394531 L 282.355469 49.257812 Z M 279.234375 49.832031 " style=" stroke:none;fill-rule:nonzero;fill:rgb(15.686275%,56.078431%,78.823529%);fill-opacity:1;" />
<path d="M 120.164062 267.128906 L 119.390625 264.148438 L 69.996094 278.390625 L 75.414062 281.976562 C 75.496094 282.03125 75.574219 282.078125 75.65625 282.121094 L 76.636719 282.726562 C 80.785156 285.253906 84.921875 287.792969 89.058594 290.332031 L 95.183594 294.09375 L 133.296875 317.425781 L 131.402344 310.210938 C 127.683594 296.046875 123.902344 281.550781 120.164062 267.128906 Z M 120.164062 267.128906 " style=" stroke:none;fill-rule:nonzero;fill:rgb(15.686275%,56.078431%,78.823529%);fill-opacity:1;" />
<path d="M 118.382812 260.296875 C 117.273438 255.992188 116.167969 251.710938 115.066406 247.457031 L 110.097656 228.296875 L 64.035156 244.882812 L 69.621094 277.382812 L 119.113281 263.117188 Z M 118.382812 260.296875 " style=" stroke:none;fill-rule:nonzero;fill:rgb(15.686275%,56.078431%,78.823529%);fill-opacity:1;" />
<path d="M 413.09375 268.136719 L 412.679688 268.097656 L 396.632812 274.746094 L 393.910156 305.363281 C 393.601562 308.835938 393.285156 312.425781 391.578125 315.445312 C 389.320312 319.433594 384.894531 321.847656 380.554688 323.980469 C 362.90625 332.652344 344.410156 339.867188 325.601562 345.421875 L 325.496094 345.449219 C 324.570312 345.71875 322.84375 346.214844 321.117188 346.214844 C 319.457031 346.214844 318.265625 345.777344 317.476562 344.882812 C 316.210938 343.429688 316.308594 340.945312 316.375 339.265625 L 317.78125 307.390625 L 229.898438 343.792969 C 221.84375 347.128906 212.714844 350.910156 203.320312 351.65625 L 200.535156 351.875 L 201.183594 425.980469 L 201.382812 426.488281 C 201.414062 426.578125 201.425781 426.65625 201.417969 426.765625 L 201.097656 430.804688 L 204.738281 430.363281 C 213.570312 429.289062 222.199219 425.773438 229.8125 422.671875 L 474.367188 322.824219 L 507.558594 228.808594 L 413.496094 267.757812 Z M 413.09375 268.136719 " style=" stroke:none;fill-rule:nonzero;fill:rgb(35.686275%,81.568627%,98.823529%);fill-opacity:1;" />
<path d="M 67.375 283.347656 C 67.359375 283.472656 67.347656 283.601562 67.335938 283.738281 L 67.308594 284.023438 C 67.011719 288.167969 68.3125 293.199219 69.578125 298.082031 C 70.121094 300.15625 70.734375 302.507812 71.121094 304.585938 L 83.53125 372.03125 L 161.777344 417.003906 C 172.21875 423 184.050781 429.792969 196.945312 430.597656 L 200.160156 430.800781 L 199.46875 351.941406 L 196.8125 351.652344 C 196.71875 351.640625 196.621094 351.636719 196.496094 351.628906 C 185.410156 350.605469 175.460938 344.515625 166.636719 339.117188 L 88.503906 291.25 C 84.367188 288.707031 80.222656 286.164062 76.101562 283.65625 L 74.699219 282.785156 C 73.777344 282.222656 72.628906 281.523438 71.679688 281.054688 L 67.929688 279.199219 Z M 67.375 283.347656 " style=" stroke:none;fill-rule:nonzero;fill:rgb(35.686275%,81.568627%,98.823529%);fill-opacity:1;" />
<path d="M 23.394531 240.539062 C 30.957031 256.625 47.847656 266.199219 63.085938 273.910156 L 68.40625 276.605469 L 36.9375 93.535156 C 36.289062 89.785156 35.488281 85.121094 36.007812 80.628906 L 36.824219 73.601562 L 31.203125 77.902344 C 20.519531 86.078125 9.101562 96.390625 5.429688 110.910156 C 3.535156 118.398438 3.976562 126.339844 4.640625 134.5 C 7.109375 164.5 11.710938 194.617188 18.3125 224.015625 C 19.625 229.8125 21 235.4375 23.394531 240.539062 Z M 23.394531 240.539062 " style=" stroke:none;fill-rule:nonzero;fill:rgb(35.686275%,81.568627%,98.823529%);fill-opacity:1;" />
<path d="M 321.054688 348.175781 C 322.480469 348.175781 324.140625 347.890625 326.128906 347.300781 C 345.058594 341.71875 363.664062 334.464844 381.421875 325.734375 C 386.035156 323.46875 390.753906 320.878906 393.28125 316.410156 C 395.1875 313.035156 395.546875 309.078125 395.867188 305.519531 L 398.675781 273.902344 L 387.367188 278.574219 L 387.367188 278.585938 L 326.875 303.636719 L 326.875 303.628906 L 315.789062 308.222656 L 314.425781 339.183594 C 314.339844 341.15625 314.214844 344.136719 316 346.152344 C 317.167969 347.496094 318.867188 348.175781 321.054688 348.175781 Z M 321.054688 348.175781 " style=" stroke:none;fill-rule:nonzero;fill:rgb(69.803922%,91.764706%,97.647059%);fill-opacity:1;" />
<path d="M 201.953125 15.671875 C 201.113281 15.574219 200.21875 15.527344 199.296875 15.527344 C 196.472656 15.527344 193.683594 15.984375 191.09375 16.476562 L 137.582031 26.574219 C 133.339844 27.378906 129.617188 28.25 127.042969 30.785156 C 125.515625 32.277344 124.664062 34.621094 124.871094 36.738281 C 125.050781 38.691406 126 39.738281 126.792969 40.285156 C 126.835938 40.316406 126.878906 40.355469 126.925781 40.40625 L 128.140625 41.753906 L 129.898438 41.296875 C 154.824219 34.847656 180.171875 28.960938 205.234375 23.800781 L 208.53125 23.121094 L 207.476562 19.921875 C 206.359375 16.527344 204.859375 16 201.953125 15.671875 Z M 201.953125 15.671875 " style=" stroke:none;fill-rule:nonzero;fill:rgb(69.803922%,91.764706%,97.647059%);fill-opacity:1;" />
<path d="M 155.285156 277.78125 C 156 280.269531 156.730469 282.769531 157.472656 285.261719 C 162.273438 301.566406 167.234375 318.425781 165.710938 335.335938 L 165.609375 337.300781 L 167.246094 338.230469 C 174.695312 342.796875 183.136719 347.96875 192.367188 349.917969 L 197.222656 350.945312 L 195.878906 346.171875 C 178.746094 285.402344 163.582031 223.234375 150.808594 161.386719 L 150.394531 159.382812 L 148.378906 159.035156 C 142.769531 158.070312 137.035156 157.304688 131.335938 156.757812 L 127.222656 156.363281 L 143.492188 229.34375 C 146.855469 244.460938 150.667969 261.589844 155.285156 277.78125 Z M 155.285156 277.78125 " style=" stroke:none;fill-rule:nonzero;fill:rgb(100%,82.352941%,73.333333%);fill-opacity:1;" />
<path d="M 134.121094 316.367188 C 134.132812 316.429688 134.136719 316.496094 134.144531 316.578125 L 134.300781 318.046875 L 151.425781 328.542969 L 148.890625 320.789062 C 136.65625 283.390625 127.472656 244.746094 121.59375 205.933594 C 119.238281 190.34375 117.382812 174.570312 115.527344 158.429688 L 115.226562 155.796875 L 112.574219 155.773438 C 111.917969 155.769531 111.257812 155.765625 110.601562 155.765625 C 107.699219 155.765625 104.800781 155.824219 101.992188 155.933594 C 99.820312 156.019531 97.578125 156.214844 96.109375 157.566406 C 93.699219 159.734375 94.371094 163.753906 95.226562 167.015625 C 101.886719 192.339844 108.234375 216.828125 114.695312 241.777344 C 121.492188 268.03125 127.644531 291.769531 134.121094 316.367188 Z M 134.121094 316.367188 " style=" stroke:none;fill-rule:nonzero;fill:rgb(100%,82.352941%,73.333333%);fill-opacity:1;" />
<path d="M 222.148438 178.699219 C 222.816406 179.492188 223.414062 180.207031 223.941406 180.964844 L 254.03125 223.914062 C 255.699219 226.296875 257.59375 228.992188 260.242188 230.566406 C 261.523438 231.324219 263.023438 231.742188 264.46875 231.742188 C 266.027344 231.742188 267.417969 231.242188 268.359375 230.359375 C 271.730469 227.289062 269.6875 221.648438 267.378906 217.460938 L 242.15625 171.460938 C 241.730469 170.679688 241.289062 169.617188 240.773438 168.378906 C 238.269531 162.304688 236.339844 159.007812 233.3125 159.007812 C 232.867188 159.007812 232.429688 159.089844 231.988281 159.257812 C 230.78125 159.730469 229.8125 160.675781 228.863281 161.59375 L 220.957031 169.304688 L 219.320312 168.867188 L 217.753906 174.65625 L 219.566406 175.152344 C 220.230469 176.421875 221.246094 177.628906 222.148438 178.699219 Z M 222.148438 178.699219 " style=" stroke:none;fill-rule:nonzero;fill:rgb(96.862745%,70.196078%,43.529412%);fill-opacity:1;" />
<path d="M 197.640625 348.519531 L 198.269531 350.738281 L 200.574219 350.703125 C 210.800781 350.542969 220.734375 346.425781 229.496094 342.796875 L 242.875 337.269531 L 237.558594 334.230469 C 224.214844 326.601562 213.488281 315.671875 207.351562 303.457031 C 199.585938 287.996094 198.902344 270.144531 205.515625 255.703125 C 212.675781 240.0625 228.320312 229.542969 244.453125 229.523438 L 244.632812 229.523438 C 246.492188 229.523438 248.523438 229.65625 250.84375 229.925781 L 257.519531 230.699219 L 253.636719 225.210938 L 228.101562 188.769531 L 227.488281 188.433594 C 227.398438 188.382812 227.308594 188.339844 227.203125 188.289062 C 206.167969 175.367188 181.546875 165.75 155.996094 160.476562 L 151.523438 159.554688 L 152.453125 164.023438 C 165.269531 225.773438 180.472656 287.847656 197.640625 348.519531 Z M 197.640625 348.519531 " style=" stroke:none;fill-rule:nonzero;fill:rgb(96.862745%,70.196078%,43.529412%);fill-opacity:1;" />
<path d="M 242.8125 335.824219 L 244.164062 336.730469 L 345.539062 294.742188 L 346 293.535156 C 350.953125 280.617188 351.144531 265.734375 346.527344 252.710938 C 341.882812 239.589844 332.277344 228.101562 320.175781 221.195312 C 316.4375 219.0625 310.738281 216.515625 304.835938 216.515625 C 302.128906 216.515625 299.613281 217.054688 297.367188 218.113281 C 294.261719 219.570312 291.710938 222.003906 289.234375 224.363281 C 287.0625 226.445312 284.8125 228.59375 282.085938 230.160156 C 278.558594 232.1875 274.601562 233.128906 269.628906 233.128906 C 267.828125 233.128906 265.839844 233.003906 263.523438 232.746094 C 263.386719 232.734375 263.257812 232.71875 263.121094 232.699219 L 262.992188 232.679688 C 261.035156 232.457031 259.027344 232.15625 257.089844 231.867188 C 252.941406 231.238281 248.648438 230.589844 244.445312 230.589844 C 228.972656 230.613281 213.359375 241.121094 206.480469 256.140625 C 200.003906 270.296875 200.6875 287.808594 208.308594 302.976562 C 215.121094 316.5625 227.375 328.226562 242.8125 335.824219 Z M 242.8125 335.824219 " style=" stroke:none;fill-rule:nonzero;fill:rgb(92.941176%,42.745098%,40%);fill-opacity:1;" />
<path d="M 119.664062 206.222656 C 125.796875 246.757812 135.507812 287.035156 148.523438 325.933594 L 148.871094 326.96875 L 160.335938 334.007812 L 159.796875 328.054688 C 158.367188 312.21875 153.464844 296.851562 148.730469 281.992188 C 146.691406 275.589844 144.582031 268.96875 142.773438 262.398438 C 138.035156 245.160156 135.125 227.214844 132.3125 209.863281 C 129.703125 193.742188 126.75 175.472656 122.066406 158.160156 L 121.496094 156.050781 L 119.3125 155.949219 C 118.4375 155.90625 117.574219 155.875 116.699219 155.855469 L 113.257812 155.773438 L 113.648438 159.199219 C 115.5 175.277344 117.351562 190.972656 119.664062 206.222656 Z M 119.664062 206.222656 " style=" stroke:none;fill-rule:nonzero;fill:rgb(92.941176%,42.745098%,40%);fill-opacity:1;" />
<path d="M 458.847656 57.296875 L 458.898438 57.253906 L 458.648438 56.394531 L 458.410156 55.339844 L 458.351562 55.386719 C 457.90625 53.878906 457.140625 51.703125 455.601562 50.035156 C 453.695312 47.992188 450.769531 46.863281 447.371094 46.863281 C 446.882812 46.863281 446.386719 46.886719 445.894531 46.9375 C 442.316406 47.277344 438.914062 48.710938 435.539062 50.128906 C 429.519531 52.683594 422.527344 56.429688 421.863281 62.828125 C 421.808594 63.40625 421.8125 64.003906 421.875 64.660156 L 421.910156 65.066406 L 421.167969 64.957031 L 423.417969 69.933594 C 423.835938 70.867188 424.3125 71.847656 424.863281 72.917969 C 425.203125 73.585938 425.542969 74.265625 425.867188 74.941406 C 431.589844 86.851562 432.101562 101.753906 427.308594 116.902344 C 422.839844 131.003906 414.410156 143.671875 406.753906 154.207031 C 386.628906 181.875 362.980469 206.925781 336.46875 228.660156 L 334.078125 230.621094 L 336.109375 232.953125 C 341.128906 238.714844 345.082031 245.421875 347.542969 252.351562 C 351.542969 263.648438 352.011719 276.359375 348.859375 288.144531 L 347.292969 294.019531 L 414.601562 266.140625 L 414.601562 266.144531 L 453.15625 250.167969 L 453.46875 248.601562 C 453.488281 248.515625 453.523438 248.425781 453.5625 248.367188 C 470 223.785156 478.847656 193.964844 478.46875 164.40625 C 478.214844 143.890625 473.664062 123.546875 469.257812 103.835938 Z M 458.847656 57.296875 " style=" stroke:none;fill-rule:nonzero;fill:rgb(97.647059%,84.705882%,53.72549%);fill-opacity:1;" />
<path d="M 322.019531 189.632812 C 321.972656 186.066406 321.582031 182.199219 320.824219 177.816406 L 320 173.023438 L 319.894531 173.101562 C 319.070312 169.304688 318.121094 165.582031 317.050781 161.460938 L 315.984375 157.425781 L 315.992188 157.417969 L 311.46875 140.058594 L 311.464844 140.0625 L 306.984375 122.886719 L 303.304688 128.9375 C 302.992188 129.453125 302.703125 129.984375 302.394531 130.503906 L 299.5625 127.867188 C 292.691406 132.570312 286.992188 137.105469 282.144531 141.734375 L 281.675781 142.183594 L 281.632812 142.121094 L 280.382812 143.421875 L 280.296875 143.5 L 280.300781 143.503906 L 279.148438 144.703125 C 276.140625 147.828125 273.433594 151.09375 271.09375 154.417969 L 270.996094 154.558594 L 270.914062 154.457031 L 268.648438 158.117188 C 265.589844 163.0625 263.25 168.253906 261.675781 173.558594 L 261.453125 173.335938 L 260.363281 178.878906 C 258.472656 188.527344 259.519531 196.128906 260.734375 200.808594 L 260.972656 201.722656 L 267.335938 207.167969 L 264.308594 209.628906 L 268.316406 216.949219 C 270.761719 221.410156 271.679688 225.234375 270.972656 228.003906 L 269.839844 232.433594 L 274.355469 231.707031 C 277.0625 231.273438 279.417969 230.464844 281.550781 229.238281 C 283.496094 228.125 285.160156 226.6875 286.535156 225.429688 L 287.574219 224.476562 L 290.234375 226.75 L 289.464844 222.570312 L 291.699219 220.65625 C 292.460938 220.007812 293.167969 219.449219 293.867188 218.953125 L 294.601562 218.429688 L 294.839844 217.820312 L 297.035156 216.015625 L 303.148438 215.527344 C 303.6875 215.484375 304.242188 215.460938 304.796875 215.460938 C 306.820312 215.460938 308.96875 215.75 311.179688 216.320312 L 313.058594 216.804688 L 314.269531 215.292969 C 317.445312 211.335938 319.683594 206.457031 320.929688 200.800781 L 322.785156 192.347656 L 321.941406 193.039062 C 322.003906 191.871094 322.039062 190.71875 322.019531 189.632812 Z M 322.019531 189.632812 " style=" stroke:none;fill-rule:nonzero;fill:rgb(58.039216%,77.647059%,40.784314%);fill-opacity:1;" />
<path d="M 130.378906 210.183594 C 133.195312 227.582031 136.113281 245.570312 140.878906 262.921875 C 142.691406 269.503906 144.808594 276.152344 146.859375 282.585938 C 151.859375 298.269531 157.027344 314.488281 158.066406 331.109375 L 158.160156 332.664062 L 167.535156 338.417969 L 167.832031 333.421875 C 168.824219 316.898438 164.007812 300.542969 159.34375 284.703125 C 158.605469 282.207031 157.878906 279.714844 157.164062 277.230469 C 152.628906 261.339844 148.964844 244.910156 145.417969 229.023438 L 129.273438 156.566406 L 127.0625 156.390625 C 125.90625 156.300781 124.75 156.230469 123.59375 156.160156 L 119.441406 155.90625 L 120.507812 159.921875 C 124.96875 176.734375 127.839844 194.503906 130.378906 210.183594 Z M 130.378906 210.183594 " style=" stroke:none;fill-rule:nonzero;fill:rgb(58.039216%,77.647059%,40.784314%);fill-opacity:1;" />
<path d="M 510.898438 225.289062 C 510.554688 224.960938 510.15625 224.722656 509.730469 224.558594 C 509.179688 223.898438 508.394531 223.425781 507.472656 223.308594 L 473.050781 218.894531 C 479.472656 201.46875 482.773438 182.867188 482.539062 164.355469 C 482.277344 143.410156 477.675781 122.84375 473.230469 102.953125 L 463.09375 57.628906 C 462.371094 54.394531 461.46875 50.371094 458.582031 47.265625 C 455.527344 43.984375 450.765625 42.390625 445.511719 42.886719 C 441.273438 43.289062 437.386719 44.933594 433.953125 46.386719 C 426.90625 49.371094 418.699219 53.882812 417.820312 62.382812 C 417.335938 67.078125 419.40625 71.160156 421.234375 74.757812 C 421.5625 75.40625 421.890625 76.054688 422.199219 76.699219 C 427.472656 87.6875 427.910156 101.53125 423.429688 115.675781 C 419.136719 129.230469 410.925781 141.546875 403.460938 151.8125 C 394.148438 164.617188 384.078125 176.839844 373.324219 188.429688 C 365.652344 185.941406 358.171875 182.527344 350.902344 179.128906 L 336.386719 3.242188 C 336.308594 2.285156 335.84375 1.402344 335.097656 0.796875 C 334.355469 0.1875 333.390625 -0.0898438 332.441406 0.0273438 C 291.988281 4.875 251.636719 11.363281 211.585938 19.429688 C 210.203125 15.066406 208.816406 12.359375 202.417969 11.628906 C 198.058594 11.128906 193.898438 11.804688 190.339844 12.476562 L 136.824219 22.582031 C 133.042969 23.292969 127.863281 24.273438 124.1875 27.886719 C 121.800781 30.230469 120.511719 33.761719 120.816406 37.105469 C 120.921875 38.277344 121.230469 39.359375 121.695312 40.335938 C 99.703125 46.148438 77.851562 52.425781 56.179688 59.195312 C 50.445312 60.984375 44.261719 63.214844 39.695312 67.273438 C 39.117188 67.335938 38.546875 67.523438 38.035156 67.882812 C 21.40625 79.621094 6.097656 91.664062 1.488281 109.914062 C -0.566406 118.046875 -0.109375 126.34375 0.589844 134.839844 C 3.070312 165.039062 7.699219 195.339844 14.347656 224.90625 C 15.699219 230.917969 17.128906 236.769531 19.714844 242.273438 C 27.972656 259.84375 45.570312 269.765625 64.460938 279.152344 C 63.464844 280.878906 63.316406 282.875 63.253906 283.730469 C 62.90625 288.546875 64.359375 294.152344 65.644531 299.097656 C 66.226562 301.34375 66.777344 303.464844 67.121094 305.332031 L 79.578125 373.011719 C 79.765625 374.035156 80.394531 374.921875 81.292969 375.4375 L 159.75 420.53125 C 170.523438 426.722656 183.933594 434.429688 198.472656 434.757812 C 198.804688 434.765625 199.136719 434.769531 199.464844 434.769531 C 210.953125 434.769531 221.828125 430.328125 231.449219 426.402344 L 476.132812 326.5 C 477.066406 326.117188 477.792969 325.355469 478.128906 324.402344 L 511.800781 229.03125 C 512.261719 227.714844 511.910156 226.246094 510.898438 225.289062 Z M 496.414062 229.015625 L 461.375 243.527344 C 464.757812 237.789062 467.78125 231.828125 470.382812 225.679688 Z M 466.328125 104.496094 C 470.699219 124.03125 475.21875 144.234375 475.472656 164.445312 C 475.835938 193.410156 467.171875 222.621094 451.070312 246.699219 C 450.792969 247.113281 450.617188 247.558594 450.53125 248.015625 L 422.121094 259.785156 C 458.742188 201.257812 469.027344 129.550781 449.460938 65.5 C 449.417969 65.355469 449.355469 65.222656 449.285156 65.097656 C 451.847656 63.875 454.273438 62.375 456.519531 60.628906 Z M 424.851562 63.109375 C 425.351562 58.292969 431.449219 55.121094 436.710938 52.898438 C 439.8125 51.582031 443.023438 50.222656 446.179688 49.925781 C 449.1875 49.636719 451.882812 50.445312 453.40625 52.082031 C 454.394531 53.140625 455.011719 54.65625 455.476562 56.253906 C 447.210938 63.453125 435.601562 66.515625 424.859375 64.386719 C 424.824219 63.957031 424.808594 63.53125 424.851562 63.109375 Z M 367.976562 194.078125 C 362.910156 199.328125 357.703125 204.445312 352.355469 209.410156 L 351.363281 187.136719 C 356.753906 189.625 362.277344 192.046875 367.976562 194.078125 Z M 409.179688 155.972656 C 416.976562 145.246094 425.570312 132.328125 430.167969 117.8125 C 435.191406 101.945312 434.625 86.257812 428.570312 73.636719 C 428.238281 72.949219 427.890625 72.257812 427.535156 71.5625 C 427.042969 70.589844 426.566406 69.636719 426.144531 68.699219 C 427.972656 68.957031 429.8125 69.101562 431.652344 69.101562 C 436.394531 69.101562 441.128906 68.253906 445.589844 66.636719 C 445.59375 66.652344 445.59375 66.664062 445.597656 66.675781 C 465.363281 131.394531 454.121094 204.085938 415.597656 262.484375 L 351.753906 288.921875 C 355.035156 276.65625 354.597656 263.292969 350.363281 251.355469 C 347.726562 243.914062 343.589844 236.972656 338.367188 230.988281 C 365.058594 209.105469 388.875 183.886719 409.179688 155.972656 Z M 218.542969 171.769531 L 221.957031 172.6875 C 222.054688 172.433594 222.636719 171.867188 222.984375 171.527344 L 230.960938 163.746094 C 231.6875 163.035156 232.441406 162.300781 233.078125 162.054688 C 234.65625 161.453125 237.085938 167.3125 238.003906 169.519531 C 238.546875 170.839844 239.019531 171.980469 239.519531 172.894531 L 264.753906 218.90625 C 265.667969 220.578125 268.492188 226.183594 266.34375 228.148438 C 265.414062 229 263.363281 228.925781 261.769531 227.984375 C 259.683594 226.746094 258.0625 224.433594 256.492188 222.195312 L 226.398438 179.242188 C 225.777344 178.351562 225.097656 177.546875 224.441406 176.765625 C 223.527344 175.679688 222.667969 174.660156 222.179688 173.667969 C 221.949219 173.203125 221.917969 172.824219 221.953125 172.691406 Z M 292.722656 215.667969 C 292.441406 215.898438 292.25 216.191406 292.128906 216.503906 C 291.296875 217.09375 290.507812 217.71875 289.75 218.371094 C 288.652344 212.492188 288.003906 206.519531 287.789062 200.511719 L 317.863281 178.320312 C 318.523438 182.09375 318.972656 185.882812 319.023438 189.667969 C 319.042969 191.214844 318.984375 192.730469 318.867188 194.214844 Z M 318 200.152344 C 316.867188 205.296875 314.804688 209.820312 311.933594 213.414062 C 309.097656 212.683594 306.03125 212.289062 302.90625 212.535156 Z M 287.722656 195.542969 C 287.75 189.09375 288.269531 182.632812 289.273438 176.242188 L 313.625 160.21875 L 314.144531 162.21875 C 315.152344 166.074219 316.160156 169.988281 317.007812 173.929688 Z M 290.261719 170.757812 C 291.339844 165.417969 292.75 160.148438 294.488281 154.996094 L 309.628906 144.894531 L 312.546875 156.089844 Z M 296.855469 148.5625 C 299.359375 142.289062 302.378906 136.234375 305.867188 130.496094 L 308.546875 140.761719 Z M 291.15625 152.289062 C 289.910156 150.5 288.722656 149.210938 287.566406 147.957031 C 286.433594 146.726562 285.347656 145.542969 284.21875 143.902344 C 289.578125 138.789062 295.4375 134.324219 301.253906 130.34375 C 297.207031 137.289062 293.832031 144.65625 291.15625 152.289062 Z M 284.597656 150.695312 C 286.042969 152.257812 287.402344 153.734375 288.875 156.195312 C 289.058594 156.503906 289.320312 156.742188 289.628906 156.914062 C 288.101562 161.851562 286.855469 166.878906 285.914062 171.964844 L 273.550781 156.140625 C 275.902344 152.804688 278.515625 149.691406 281.3125 146.785156 C 282.445312 148.359375 283.535156 149.542969 284.597656 150.695312 Z M 284.726562 177.011719 C 284.820312 177.128906 284.925781 177.230469 285.035156 177.324219 C 284.230469 182.921875 283.773438 188.574219 283.691406 194.21875 L 264.421875 174.847656 C 265.832031 169.945312 268.019531 164.835938 271.195312 159.691406 Z M 283.742188 199.996094 C 283.933594 206.371094 284.597656 212.71875 285.75 218.960938 L 263.640625 200.050781 C 262.183594 194.425781 261.769531 187.304688 263.308594 179.457031 Z M 270.949219 215.503906 L 266.933594 208.183594 L 284.507812 223.214844 C 283.066406 224.535156 281.625 225.734375 280.0625 226.632812 C 278.132812 227.742188 276.0625 228.398438 273.882812 228.742188 C 274.660156 225.699219 274.203125 221.4375 270.949219 215.503906 Z M 256.644531 234.835938 C 258.636719 235.132812 260.640625 235.429688 262.648438 235.667969 C 262.835938 235.699219 263.023438 235.714844 263.210938 235.734375 C 270.183594 236.515625 277.160156 236.453125 283.585938 232.761719 C 286.578125 231.042969 288.984375 228.75 291.3125 226.53125 C 293.71875 224.238281 295.992188 222.070312 298.636719 220.828125 C 305.722656 217.496094 314.242188 221.257812 318.691406 223.796875 C 330.171875 230.351562 339.289062 241.257812 343.703125 253.71875 C 348.089844 266.097656 347.898438 280.203125 343.195312 292.464844 L 244.496094 333.339844 C 244.410156 333.285156 244.332031 333.222656 244.238281 333.175781 C 229.34375 325.871094 217.535156 314.667969 210.988281 301.628906 C 203.769531 287.257812 203.105469 270.722656 209.210938 257.394531 C 215.621094 243.398438 230.113281 233.609375 244.453125 233.59375 L 244.492188 233.59375 C 248.386719 233.59375 252.398438 234.195312 256.644531 234.835938 Z M 317.417969 339.316406 C 317.417969 339.316406 318.703125 310.261719 318.703125 310.261719 C 318.734375 309.523438 328.800781 306.1875 330.042969 305.640625 C 331.589844 304.957031 333.140625 304.28125 334.703125 303.632812 C 338.789062 301.945312 342.871094 300.253906 346.953125 298.5625 C 356.359375 294.667969 365.765625 290.773438 375.167969 286.878906 C 379.054688 285.90625 382.714844 284.214844 386.34375 282.554688 C 387.304688 282.117188 395.171875 279.421875 395.25 278.5625 C 395.25 278.5625 392.878906 305.253906 392.878906 305.253906 C 392.59375 308.464844 392.269531 312.101562 390.671875 314.929688 C 388.5625 318.660156 384.292969 320.984375 380.101562 323.042969 C 362.515625 331.683594 344.070312 338.878906 325.28125 344.425781 C 321.640625 345.5 319.339844 345.421875 318.257812 344.183594 C 317.332031 343.132812 317.335938 341.203125 317.417969 339.316406 Z M 345.507812 214.546875 C 345.519531 214.867188 345.59375 215.171875 345.683594 215.464844 C 341.671875 219.023438 337.585938 222.5 333.429688 225.898438 C 329.996094 222.738281 326.222656 219.960938 322.191406 217.660156 C 321.230469 217.113281 320.105469 216.519531 318.867188 215.941406 C 322.996094 209.953125 325.453125 202.328125 325.988281 193.867188 L 344.328125 188.074219 Z M 324.53125 175.4375 C 329.859375 177.316406 335.09375 179.597656 340.226562 181.953125 L 325.960938 186.460938 C 325.734375 182.734375 325.21875 179.0625 324.53125 175.4375 Z M 343.527344 175.691406 C 336.980469 172.675781 330.242188 169.757812 323.222656 167.542969 C 323.074219 167.5 322.925781 167.480469 322.777344 167.453125 C 322.199219 165.09375 321.589844 162.753906 320.984375 160.433594 L 310.761719 121.242188 C 310.476562 120.152344 309.6875 119.261719 308.640625 118.847656 C 307.59375 118.433594 306.410156 118.542969 305.457031 119.144531 C 302.425781 121.054688 299.3125 123.085938 296.191406 125.25 C 296.152344 125.230469 296.121094 125.203125 296.082031 125.183594 L 286.335938 48.246094 L 329.902344 10.621094 Z M 129.140625 32.929688 C 131.125 30.976562 134.390625 30.234375 138.136719 29.527344 L 191.652344 19.421875 C 194.699219 18.84375 198.238281 18.261719 201.613281 18.648438 C 203.734375 18.890625 203.988281 18.921875 204.625 20.859375 C 179.320312 26.078125 154.144531 31.925781 129.148438 38.394531 C 128.960938 38.1875 128.753906 37.992188 128.511719 37.828125 C 128.136719 37.574219 127.914062 37.113281 127.855469 36.460938 C 127.742188 35.238281 128.269531 33.78125 129.140625 32.929688 Z M 41.464844 76.210938 C 44.355469 70.675781 51.359375 68.101562 58.285156 65.941406 C 143.949219 39.195312 232.445312 19.910156 321.511719 8.527344 L 279.058594 45.1875 C 278.828125 45.382812 278.640625 45.613281 278.476562 45.847656 C 199.101562 60.449219 119.902344 80.152344 42.9375 104.441406 L 40.941406 92.84375 C 39.835938 86.40625 39.113281 80.714844 41.464844 76.210938 Z M 26.113281 239.265625 C 23.828125 234.40625 22.507812 228.964844 21.242188 223.351562 C 14.667969 194.105469 10.089844 164.128906 7.632812 134.257812 C 6.984375 126.378906 6.554688 118.722656 8.34375 111.640625 C 11.554688 98.917969 21.316406 89.246094 33.03125 80.285156 C 32.460938 85.183594 33.296875 90.09375 33.976562 94.039062 L 64.433594 271.230469 C 47.9375 262.882812 32.96875 253.855469 26.113281 239.265625 Z M 66.203125 239.78125 L 44.144531 111.46875 C 121.128906 87.128906 200.371094 67.390625 279.785156 52.785156 L 289.574219 130.058594 C 280.9375 136.683594 272.636719 144.546875 266.292969 154.222656 C 258.796875 165.652344 255.742188 177.109375 255.347656 187.050781 L 245.71875 169.492188 C 245.402344 168.917969 244.980469 167.894531 244.53125 166.8125 C 242.445312 161.769531 238.558594 152.382812 230.542969 155.453125 C 228.546875 156.21875 227.148438 157.585938 226.023438 158.683594 L 218.046875 166.464844 C 217.1875 167.304688 216.011719 168.453125 215.363281 170.132812 C 215.273438 170.363281 215.199219 170.597656 215.132812 170.832031 C 215.132812 170.835938 215.132812 170.839844 215.132812 170.84375 C 214.621094 172.726562 214.875 174.84375 215.84375 176.804688 C 215.9375 176.996094 216.054688 177.175781 216.15625 177.363281 C 181.414062 159.238281 141.375 150.238281 101.820312 151.867188 C 99.03125 151.984375 95.84375 152.296875 93.355469 154.5625 C 88.828125 158.683594 90.617188 165.488281 91.292969 168.046875 C 96.402344 187.472656 101.382812 206.632812 106.238281 225.363281 Z M 160.34375 284.414062 C 159.609375 281.921875 158.878906 279.429688 158.167969 276.949219 C 153.628906 261.046875 149.960938 244.597656 146.417969 228.691406 L 131.050781 159.742188 C 136.671875 160.277344 142.285156 161.03125 147.875 161.992188 C 160.660156 223.910156 175.828125 286.113281 192.984375 346.980469 C 184.277344 345.140625 176.09375 340.132812 168.765625 335.644531 L 168.695312 335.601562 C 170.269531 318.175781 165.234375 301.019531 160.34375 284.414062 Z M 117.597656 241.023438 C 111.324219 216.804688 104.839844 191.757812 98.128906 166.25 C 97.21875 162.785156 97.214844 160.613281 98.113281 159.792969 C 98.851562 159.121094 100.5625 158.996094 102.113281 158.933594 C 105.578125 158.789062 109.058594 158.746094 112.550781 158.777344 C 114.355469 174.453125 116.238281 190.558594 118.632812 206.378906 C 124.539062 245.410156 133.757812 284.183594 146.035156 321.722656 L 137.132812 316.265625 C 137.113281 316.070312 137.089844 315.875 137.039062 315.675781 C 130.339844 290.210938 123.863281 265.207031 117.597656 241.023438 Z M 128.496094 310.976562 L 96.753906 291.53125 L 90.628906 287.777344 C 86.488281 285.234375 82.347656 282.691406 78.195312 280.164062 L 77.15625 279.523438 C 77.128906 279.507812 77.101562 279.492188 77.070312 279.472656 L 117.257812 267.886719 C 120.933594 282.042969 124.679688 296.425781 128.496094 310.976562 Z M 122.625 205.777344 C 120.269531 190.207031 118.40625 174.324219 116.625 158.855469 C 117.472656 158.878906 118.320312 158.90625 119.171875 158.941406 C 123.730469 175.804688 126.597656 193.34375 129.351562 210.347656 C 132.179688 227.792969 135.105469 245.832031 139.875 263.191406 C 141.695312 269.804688 143.816406 276.464844 145.871094 282.902344 C 150.570312 297.640625 155.410156 312.847656 156.8125 328.324219 L 151.363281 324.988281 C 138.40625 286.253906 128.734375 246.152344 122.625 205.777344 Z M 149.71875 281.671875 C 147.679688 275.273438 145.566406 268.65625 143.773438 262.121094 C 139.058594 244.96875 136.152344 227.039062 133.339844 209.699219 C 130.636719 193.015625 127.824219 175.820312 123.414062 159.152344 C 124.550781 159.222656 125.691406 159.296875 126.828125 159.382812 L 142.472656 229.574219 C 146.03125 245.535156 149.710938 262.042969 154.285156 278.058594 C 154.996094 280.550781 155.730469 283.050781 156.46875 285.554688 C 161.0625 301.144531 165.796875 317.230469 164.839844 333.242188 L 161.058594 330.925781 C 160.003906 313.96875 154.78125 297.554688 149.71875 281.671875 Z M 108.023438 232.238281 C 108.9375 235.769531 109.851562 239.292969 110.757812 242.792969 C 112.320312 248.828125 113.894531 254.910156 115.484375 261.042969 L 72.011719 273.578125 L 67.417969 246.855469 Z M 163.273438 414.402344 L 86.234375 370.121094 L 74.070312 304.046875 C 73.683594 301.933594 73.101562 299.691406 72.484375 297.320312 C 71.28125 292.683594 70.039062 287.894531 70.304688 284.238281 C 70.316406 284.054688 70.332031 283.890625 70.351562 283.742188 C 71.28125 284.203125 72.519531 284.96875 73.441406 285.539062 L 74.519531 286.203125 C 78.664062 288.726562 82.796875 291.261719 86.929688 293.800781 L 165.070312 341.671875 C 174.140625 347.226562 184.417969 353.523438 196.222656 354.617188 C 196.3125 354.625 196.398438 354.628906 196.488281 354.636719 L 197.125 427.609375 C 184.945312 426.839844 173.457031 420.253906 163.273438 414.402344 Z M 155.386719 163.410156 C 180.4375 168.582031 204.664062 177.941406 225.726562 190.902344 C 225.828125 190.96875 225.941406 191.007812 226.046875 191.058594 L 250.699219 226.246094 C 250.855469 226.472656 251.023438 226.707031 251.1875 226.9375 C 248.945312 226.679688 246.691406 226.511719 244.441406 226.523438 C 227.167969 226.542969 210.425781 237.765625 202.785156 254.449219 C 195.796875 269.710938 196.5 288.53125 204.667969 304.800781 C 211.136719 317.683594 222.175781 328.890625 236.066406 336.828125 L 228.347656 340.027344 C 219.753906 343.585938 210.144531 347.550781 200.53125 347.703125 C 183.378906 287.089844 168.203125 225.121094 155.386719 163.410156 Z M 471.988281 320.550781 L 228.777344 419.855469 C 221.222656 422.9375 212.847656 426.355469 204.378906 427.386719 L 204.414062 427.003906 C 204.460938 426.4375 204.375 425.890625 204.179688 425.398438 L 203.558594 354.640625 C 213.390625 353.863281 222.671875 350.027344 231.054688 346.558594 L 314.585938 311.964844 L 313.382812 339.136719 C 313.292969 341.136719 313.144531 344.488281 315.21875 346.847656 C 316.820312 348.675781 319.035156 349.210938 321.117188 349.210938 C 323.34375 349.210938 325.417969 348.597656 326.425781 348.300781 C 345.433594 342.6875 364.089844 335.410156 381.882812 326.667969 C 386.640625 324.332031 391.507812 321.652344 394.183594 316.921875 C 396.214844 313.332031 396.578125 309.230469 396.902344 305.613281 L 399.460938 276.820312 L 413.152344 271.148438 C 413.261719 271.167969 413.375 271.199219 413.488281 271.199219 C 414.125 271.199219 414.75 270.898438 415.144531 270.339844 C 415.148438 270.332031 415.152344 270.324219 415.15625 270.316406 L 502.492188 234.152344 Z M 471.988281 320.550781 " style=" stroke:none;fill-rule:nonzero;fill:rgb(0%,0%,0%);fill-opacity:1;" />
</g>
</svg>