<svg id="Layer_5" enable-background="new 0 0 64 64" height="512" viewBox="0 0 64 64" width="512"
     xmlns="http://www.w3.org/2000/svg">
    <path d="m16 27.61v-9.61c0-3.06 1.16-5.83 3.03-7.95.09.79.37 1.55.81 2.21l2.96 4.44c-.28.12-.55.24-.8.36v5.5c0 3.1 1.02 6.02 2.77 8.38 1.13 1.51 2.56 2.8 4.23 3.76v2.83c0 .88-.57 1.65-1.4 1.91l-.75.24-.87.27-3.31 1.05h-.01-.66c-5 0-8-3-8-3 1.32-3.3 2-6.83 2-10.39z"
          fill="#b27946"/>
    <path d="m42 17.06c-.25-.12-.52-.24-.8-.36l2.96-4.44c.44-.66.72-1.42.81-2.21 1.87 2.12 3.03 4.89 3.03 7.95v9.61c0 3.56.68 7.09 2 10.39 0 0-3 3-8 3h-.66-.01l-3.31-1.05-.86-.27-.76-.24c-.83-.26-1.4-1.03-1.4-1.91v-2.83c4.26-2.46 7-7.05 7-12.14z"
          fill="#b27946"/>
    <g fill="#e6e9ed">
        <path d="m19.03 10.05c-.02-.19-.03-.37-.03-.56 0-2.09 1.31-3.97 3.28-4.68l5.84-2.13c1.24-.45 2.56-.68 3.88-.68s2.64.23 3.88.68l5.84 2.13c.98.35 1.8 1 2.38 1.82.57.82.9 1.81.9 2.86 0 .19-.01.37-.03.56-.09.79-.37 1.55-.81 2.21l-2.96 4.44c-2.12-.89-5.15-1.7-9.2-1.7s-7.08.81-9.2 1.7l-2.96-4.44c-.44-.66-.72-1.42-.81-2.21z"/>
        <path d="m41.33 41h.01l2.88.91c5.82 1.84 9.78 7.24 9.78 13.35v6.74h-10-14v-8l2-4 1.54-3.08 6.46-.92-2-6 .02-.05z"/>
        <path d="m20 62h-10v-6.74c0-6.11 3.96-11.51 9.78-13.35l2.88-.91h.01l3.31-1.05.02.05-2 6 6.46.92 1.54 3.08-2 4v8z"/>
    </g>
    <path d="m38 40 2 6-6.46.92 1.46-2.92 2.16-4.32.86.27z" fill="#fcd770"/>
    <path d="m29 44 1.46 2.92-6.46-.92 2-6-.02-.05.87-.27v.01z" fill="#fcd770"/>
    <path d="m29 44h6l-1.46 2.92-1.54 3.08-1.54-3.08z" fill="#ffeaa7"/>
    <path d="m27.6 39.44c.83-.26 1.4-1.03 1.4-1.91v-2.83c.93.54 1.94.98 3 1.3 1.06-.32 2.07-.76 3-1.3v2.83c0 .88.57 1.65 1.4 1.91l.76.24-2.16 4.32h-6l-2.15-4.31v-.01z"
          fill="#f0d0b4"/>
    <path d="m41.2 16.7c.28.12.55.24.8.36v5.5c0 5.09-2.74 9.68-7 12.14-.93.54-1.94.98-3 1.3-1.06-.32-2.07-.76-3-1.3-1.67-.96-3.1-2.25-4.23-3.76-1.75-2.36-2.77-5.28-2.77-8.38v-5.5c.25-.12.52-.24.8-.36 2.12-.89 5.15-1.7 9.2-1.7s7.08.81 9.2 1.7z"
          fill="#f0d0b4"/>
    <circle cx="37" cy="22" r="1"/>
    <circle cx="27" cy="22" r="1"/>
    <path d="m32 32c1.654 0 3-1.346 3-3h-2c0 .551-.448 1-1 1s-1-.449-1-1h-2c0 1.654 1.346 3 3 3z"/>
    <path d="m45.813 41.437c3.035-.914 4.795-2.631 4.894-2.73l.467-.466-.245-.612c-1.281-3.199-1.929-6.568-1.929-10.014v-9.615c0-3.024-1.075-5.943-3.017-8.28.003-.077.017-.152.017-.229 0-2.507-1.583-4.767-3.939-5.624l-5.839-2.124c-2.717-.987-5.727-.987-8.443 0l-5.839 2.124c-2.357.857-3.94 3.117-3.94 5.624 0 .077.014.152.017.229-1.942 2.337-3.017 5.256-3.017 8.28v9.615c0 3.446-.648 6.815-1.929 10.014l-.245.612.467.466c.099.099 1.859 1.817 4.894 2.73-5.546 2.322-9.187 7.713-9.187 13.823v7.74h46v-7.74c0-6.11-3.641-11.501-9.187-13.823zm1.187-23.437v9.615c0 3.46.609 6.849 1.812 10.083-.98.757-3.4 2.302-6.812 2.302h-.513l-4.789-1.512c-.418-.132-.698-.515-.698-.954v-2.268c4.299-2.696 7-7.414 7-12.707v-3.801c.854.534 1.282.938 1.293.949l1.414-1.414c-.082-.082-1.064-1.028-3.026-2.011l2.314-3.472c.128-.191.233-.394.338-.597 1.081 1.734 1.667 3.733 1.667 5.787zm-14.138 28.039-.862 1.725-.863-1.725.004-.028-.02-.003-.503-1.008h2.764l-.504 1.007-.02.003zm-9.862-28.322c2.017-.879 4.981-1.717 9-1.717s6.984.838 9 1.717v4.842c0 5.699-3.604 10.642-9 12.393-5.396-1.751-9-6.694-9-12.393zm7 19.817v-1.216c.554.241 1.121.462 1.713.64l.287.086.287-.086c.592-.177 1.159-.398 1.713-.64v1.216c0 1.19.694 2.239 1.754 2.722l-1.372 2.744h-4.764l-1.372-2.744c1.06-.483 1.754-1.532 1.754-2.722zm-3.415 3.872 2.129 4.257-3.387-.484zm10.83 0 1.258 3.773-3.386.484zm-14.792-35.659 5.839-2.124c2.275-.827 4.801-.827 7.076 0l5.839 2.124c1.569.57 2.623 2.075 2.623 3.744 0 .79-.231 1.554-.669 2.21l-2.516 3.775c-2.166-.808-5.073-1.476-8.815-1.476s-6.649.668-8.815 1.475l-2.516-3.775c-.438-.656-.669-1.42-.669-2.209 0-1.669 1.054-3.174 2.623-3.744zm-5.623 21.868v-9.615c0-2.054.586-4.053 1.667-5.786.104.203.21.405.338.597l2.314 3.472c-1.962.983-2.945 1.929-3.026 2.011l1.411 1.417c.012-.012.441-.417 1.296-.952v3.801c0 5.292 2.701 10.011 7 12.707v2.268c0 .438-.28.822-.698.954l-4.789 1.511h-.513c-3.413 0-5.834-1.547-6.812-2.302 1.203-3.234 1.812-6.623 1.812-10.083zm-6 27.645c0-5.699 3.651-10.68 9.085-12.396l4.366-1.379-1.778 5.335 7.128 1.018 1.081 2.162-1.882 3.764v7.236h-8.764l-.576-.288c-1.641-.82-2.66-2.47-2.66-4.304 0-1.286.501-2.494 1.408-3.403l.592-.59v-2.415h-2v1.585l-.005.005c-1.287 1.287-1.995 2.998-1.995 4.818 0 1.744.663 3.361 1.794 4.592h-5.794zm42 5.74h-5.794c1.131-1.232 1.794-2.848 1.794-4.592 0-1.819-.708-3.53-1.996-4.818l-.004-1.59h-2v2.415l.591.59c.908.909 1.409 2.117 1.409 3.403 0 1.834-1.02 3.484-2.66 4.304l-.576.288h-12.764v-6.764l3.199-6.397 7.128-1.018-1.778-5.335 4.366 1.379c5.434 1.715 9.085 6.697 9.085 12.395z"/>
    <path d="m31 11h2v-2h2v-2h-2v-2h-2v2h-2v2h2z"/>
</svg>